<svg xmlns="http://www.w3.org/2000/svg" viewBox="0 0 512 512">
  <defs>
    <linearGradient id="bg" x1="0" y1="0" x2="1" y2="1">
      <stop offset="0%"  stop-color="#FFD740"/>
      <stop offset="45%" stop-color="#F5C518"/>
      <stop offset="100%" stop-color="#C48A00"/>
    </linearGradient>
  </defs>

  <!-- Background squircle -->
  <rect width="512" height="512" rx="110" fill="url(#bg)"/>

  <!-- Film strip body -->
  <rect x="158" y="102" width="196" height="308" rx="10" fill="#1A1A1A"/>

  <!-- Left sprocket holes -->
  <rect x="166" y="119" width="22" height="18" rx="4" fill="#F5C518"/>
  <rect x="166" y="154" width="22" height="18" rx="4" fill="#F5C518"/>
  <rect x="166" y="189" width="22" height="18" rx="4" fill="#F5C518"/>
  <rect x="166" y="224" width="22" height="18" rx="4" fill="#F5C518"/>
  <rect x="166" y="259" width="22" height="18" rx="4" fill="#F5C518"/>
  <rect x="166" y="294" width="22" height="18" rx="4" fill="#F5C518"/>
  <rect x="166" y="329" width="22" height="18" rx="4" fill="#F5C518"/>
  <rect x="166" y="364" width="22" height="18" rx="4" fill="#F5C518"/>

  <!-- Right sprocket holes -->
  <rect x="324" y="119" width="22" height="18" rx="4" fill="#F5C518"/>
  <rect x="324" y="154" width="22" height="18" rx="4" fill="#F5C518"/>
  <rect x="324" y="189" width="22" height="18" rx="4" fill="#F5C518"/>
  <rect x="324" y="224" width="22" height="18" rx="4" fill="#F5C518"/>
  <rect x="324" y="259" width="22" height="18" rx="4" fill="#F5C518"/>
  <rect x="324" y="294" width="22" height="18" rx="4" fill="#F5C518"/>
  <rect x="324" y="329" width="22" height="18" rx="4" fill="#F5C518"/>
  <rect x="324" y="364" width="22" height="18" rx="4" fill="#F5C518"/>

  <!-- Bell badge (rounded rectangle, bottom-right) -->
  <rect x="336" y="336" width="150" height="150" rx="36" fill="#1A1A1A"/>

  <!-- Bell: handle -->
  <rect x="405" y="372" width="14" height="14" rx="5" fill="#F5C518"/>

  <!-- Bell: dome (two quadratic beziers) -->
  <path d="M 374 430 Q 374 386 412 382 Q 450 386 450 430 L 450 438 L 374 438 Z" fill="#F5C518"/>

  <!-- Bell: clapper -->
  <rect x="403" y="436" width="18" height="12" rx="6" fill="#F5C518"/>
</svg>
